HIERARCHY
ROOT joint_0
{
	OFFSET 0.000000 0.000000 0.000000
	CHANNELS 6 Xposition Yposition Zposition Zrotation Yrotation Xrotation 
	JOINT joint_1
	{
		OFFSET 14.113007 -2.961990 123.953979
		CHANNELS 3 Zrotation Yrotation Xrotation
		JOINT joint_2
		{
			OFFSET 0.764000 -2.434006 113.871948
			CHANNELS 3 Zrotation Yrotation Xrotation
			JOINT joint_3
			{
				OFFSET 0.186996 -2.169998 113.753052
				CHANNELS 3 Zrotation Yrotation Xrotation
				JOINT joint_4
				{
					OFFSET 16.096001 -2.720001 160.853027
					CHANNELS 3 Zrotation Yrotation Xrotation
					JOINT joint_5
					{
						OFFSET 34.392006 -0.188995 92.567017
						CHANNELS 3 Zrotation Yrotation Xrotation
						End Site
						{
							OFFSET 0.000000 0.000000 0.000000
						}
					}
				}
				JOINT joint_6
				{
					OFFSET 9.183998 -36.684006 89.597046
					CHANNELS 3 Zrotation Yrotation Xrotation
					JOINT joint_7
					{
						OFFSET 0.486000 -164.365997 -28.984009
						CHANNELS 3 Zrotation Yrotation Xrotation
						JOINT joint_8
						{
							OFFSET 38.899002 -34.967010 -291.651978
							CHANNELS 3 Zrotation Yrotation Xrotation
							JOINT joint_9
							{
								OFFSET 41.714005 -45.890991 -258.857056
								CHANNELS 3 Zrotation Yrotation Xrotation
								End Site
								{
									OFFSET 0.000000 0.000000 0.000000
								}
							}
						}
					}
				}
				JOINT joint_10
				{
					OFFSET 8.867004 33.650002 90.817993
					CHANNELS 3 Zrotation Yrotation Xrotation
					JOINT joint_11
					{
						OFFSET 0.018997 164.299999 -29.368042
						CHANNELS 3 Zrotation Yrotation Xrotation
						JOINT joint_12
						{
							OFFSET 29.440994 30.887997 -293.216919
							CHANNELS 3 Zrotation Yrotation Xrotation
							JOINT joint_13
							{
								OFFSET 46.174011 54.490005 -256.422058
								CHANNELS 3 Zrotation Yrotation Xrotation
								End Site
								{
									OFFSET 0.000000 0.000000 0.000000
								}
							}
						}
					}
				}
			}
		}
	}
	JOINT joint_14
	{
		OFFSET -2.264000 -89.466995 -116.150024
		CHANNELS 3 Zrotation Yrotation Xrotation
		JOINT joint_15
		{
			OFFSET -16.400993 -17.452988 -493.781982
			CHANNELS 3 Zrotation Yrotation Xrotation
			JOINT joint_16
			{
				OFFSET -50.497004 -13.404022 -424.754013
				CHANNELS 3 Zrotation Yrotation Xrotation
				JOINT joint_17
				{
					OFFSET 198.546007 -19.341003 -89.309000
					CHANNELS 3 Zrotation Yrotation Xrotation
					End Site
					{
						OFFSET 0.000000 0.000000 0.000000
					}
				}
			}
		}
	}
	JOINT joint_18
	{
		OFFSET -0.867996 96.016006 -110.817993
		CHANNELS 3 Zrotation Yrotation Xrotation
		JOINT joint_19
		{
			OFFSET -10.130997 24.658998 -493.645020
			CHANNELS 3 Zrotation Yrotation Xrotation
			JOINT joint_20
			{
				OFFSET -48.871004 19.434999 -424.714005
				CHANNELS 3 Zrotation Yrotation Xrotation
				JOINT joint_21
				{
					OFFSET 195.579996 24.926001 -94.327003
					CHANNELS 3 Zrotation Yrotation Xrotation
					End Site
					{
						OFFSET 0.000000 0.000000 0.000000
					}
				}
			}
		}
	}
}
MOTION
Frames: 15
Frame Time: 0.016667
101.529000 -146.787000 1147.879030 -0.718060 -0.794494 -0.080983 -0.260010 -0.235282 -0.204826 -0.255543 0.041734 0.018607 -0.257043 -0.040517 -0.030499 0.202869 -1.081907 -0.546851 0.000000 0.000000 0.000000 0.468838 -0.612875 0.583172 -0.039427 -0.525782 -0.227964 -0.354575 0.436828 -1.727893 0.000000 0.000000 0.000000 -0.763473 -1.494772 -0.076995 -0.153604 -1.385410 0.792896 -0.190505 -1.151224 0.311078 0.000000 0.000000 0.000000 0.206106 0.346044 -0.126104 0.131880 2.439234 -0.119885 0.179719 0.107189 0.091217 0.000000 0.000000 0.000000 0.151310 1.202061 -0.199769 0.134626 0.951503 -0.010278 0.100616 0.271374 0.013918 0.000000 0.000000 0.000000 
102.018000 -147.052990 1147.817990 -0.648859 -0.776055 -0.077652 -0.253399 -0.250045 -0.228945 -0.248814 0.042740 0.027823 -0.250394 -0.044927 -0.036703 0.209427 -1.046242 -0.564338 0.000000 0.000000 0.000000 0.440632 -0.634172 0.566822 -0.006535 -0.557501 -0.130529 -0.288404 0.247941 -1.522805 0.000000 0.000000 0.000000 -0.785483 -1.626594 -0.111047 -0.173801 -1.516769 0.720302 -0.190732 -1.250586 0.429063 0.000000 0.000000 0.000000 0.188970 0.396598 -0.117449 0.118939 2.376862 -0.117545 0.167469 0.069367 0.082028 0.000000 0.000000 0.000000 0.124964 1.232117 -0.174916 0.104878 0.896163 -0.027540 0.072158 0.257376 0.001985 0.000000 0.000000 0.000000 
102.424000 -147.338000 1147.781010 -0.573599 -0.746999 -0.073358 -0.242667 -0.258055 -0.248727 -0.238101 0.042928 0.037247 -0.239737 -0.048943 -0.042489 0.214015 -1.039821 -0.576644 0.000000 0.000000 0.000000 0.392580 -0.620792 0.522418 0.031829 -0.558912 -0.037719 -0.183765 -0.053463 -1.203081 0.000000 0.000000 0.000000 -0.788933 -1.734741 -0.142220 -0.199723 -1.628724 0.636036 -0.204284 -1.376009 0.504105 0.000000 0.000000 0.000000 0.170901 0.441908 -0.111539 0.105440 2.291446 -0.110225 0.154055 0.044128 0.073542 0.000000 0.000000 0.000000 0.097964 1.243300 -0.147592 0.075602 0.840879 -0.050586 0.044292 0.256996 -0.011399 0.000000 0.000000 0.000000 
102.733000 -147.616000 1147.745000 -0.501095 -0.714163 -0.076535 -0.233079 -0.250578 -0.251265 -0.228768 0.040618 0.041912 -0.230389 -0.051106 -0.045124 0.217139 -1.053134 -0.585105 0.000000 0.000000 0.000000 0.348985 -0.596855 0.475932 0.068971 -0.548793 0.041670 -0.071599 -0.371913 -0.856768 0.000000 0.000000 0.000000 -0.784909 -1.808516 -0.163345 -0.231611 -1.708615 0.551542 -0.236614 -1.529287 0.507967 0.000000 0.000000 0.000000 0.152629 0.462814 -0.096589 0.090251 2.232775 -0.103523 0.139557 0.023512 0.065018 0.000000 0.000000 0.000000 0.074920 1.232499 -0.117181 0.052389 0.806884 -0.067765 0.022649 0.269978 -0.023486 0.000000 0.000000 0.000000 
102.923000 -147.880000 1147.693970 -0.432896 -0.676829 -0.093346 -0.227008 -0.222486 -0.226381 -0.223153 0.038715 0.039140 -0.224750 -0.051434 -0.043498 0.219334 -1.098649 -0.591184 0.000000 0.000000 0.000000 0.316650 -0.565399 0.426539 0.104647 -0.528951 0.102356 0.049239 -0.709885 -0.479358 0.000000 0.000000 0.000000 -0.774122 -1.840769 -0.166267 -0.273335 -1.749807 0.468714 -0.297275 -1.733946 0.415230 0.000000 0.000000 0.000000 0.133674 0.444197 -0.063771 0.071882 2.225822 -0.100903 0.122924 0.007174 0.055950 0.000000 0.000000 0.000000 0.059024 1.189169 -0.082313 0.039606 0.809604 -0.071944 0.011771 0.301379 -0.032732 0.000000 0.000000 0.000000 
103.016000 -148.136990 1147.641970 -0.367817 -0.635901 -0.117654 -0.221351 -0.178563 -0.184116 -0.218201 0.034327 0.031671 -0.219707 -0.050063 -0.038037 0.220643 -1.164814 -0.595001 0.000000 0.000000 0.000000 0.286113 -0.523076 0.373941 0.139238 -0.497755 0.150313 0.177798 -1.066432 -0.075444 0.000000 0.000000 0.000000 -0.757620 -1.838933 -0.158428 -0.321036 -1.758930 0.384778 -0.376344 -1.966336 0.252458 0.000000 0.000000 0.000000 0.114626 0.401549 -0.021914 0.051960 2.245363 -0.099010 0.105355 -0.005184 0.046849 0.000000 0.000000 0.000000 0.047350 1.124290 -0.044316 0.033126 0.833400 -0.070572 0.007263 0.345129 -0.040480 0.000000 0.000000 0.000000 
103.078000 -148.382000 1147.612060 -0.309224 -0.599506 -0.139659 -0.216889 -0.136819 -0.140942 -0.214366 0.030586 0.022359 -0.215752 -0.046205 -0.031128 0.219827 -1.209914 -0.593158 0.000000 0.000000 0.000000 0.267013 -0.486953 0.345215 0.166799 -0.469589 0.194973 0.279471 -1.337055 0.256280 0.000000 0.000000 0.000000 -0.735383 -1.814638 -0.154376 -0.363376 -1.745746 0.304792 -0.449747 -2.156440 0.070044 0.000000 0.000000 0.000000 0.097729 0.362000 0.014472 0.033990 2.264942 -0.093301 0.090185 -0.020347 0.038554 0.000000 0.000000 0.000000 0.035933 1.066617 -0.007431 0.026330 0.852405 -0.071748 0.002052 0.383068 -0.047826 0.000000 0.000000 0.000000 
103.119000 -148.613010 1147.625000 -0.258277 -0.571842 -0.157126 -0.214330 -0.097438 -0.100617 -0.212457 0.024051 0.011748 -0.213582 -0.037572 -0.022967 0.216270 -1.219740 -0.583944 0.000000 0.000000 0.000000 0.261888 -0.464627 0.353912 0.184802 -0.451209 0.235063 0.342589 -1.482174 0.487644 0.000000 0.000000 0.000000 -0.709521 -1.767885 -0.161477 -0.398193 -1.709528 0.238039 -0.515304 -2.293736 -0.132381 0.000000 0.000000 0.000000 0.083439 0.334793 0.040605 0.018736 2.277183 -0.080160 0.078434 -0.040919 0.031268 0.000000 0.000000 0.000000 0.022526 1.027504 0.029296 0.016010 0.856513 -0.080062 -0.007283 0.409653 -0.055714 0.000000 0.000000 0.000000 
103.128000 -148.830990 1147.660030 -0.214401 -0.549116 -0.172658 -0.212476 -0.058892 -0.058294 -0.211218 0.016841 -0.001610 -0.212008 -0.025332 -0.012783 0.210789 -1.210191 -0.569559 0.000000 0.000000 0.000000 0.266845 -0.448746 0.384317 0.196014 -0.436378 0.273915 0.378825 -1.540145 0.648715 0.000000 0.000000 0.000000 -0.678633 -1.699333 -0.174130 -0.427414 -1.651524 0.176785 -0.575150 -2.388325 -0.354689 0.000000 0.000000 0.000000 0.071337 0.310917 0.061684 0.005494 2.289612 -0.063381 0.069130 -0.064503 0.024789 0.000000 0.000000 0.000000 0.009612 0.996095 0.065249 0.005592 0.855794 -0.090949 -0.017123 0.430318 -0.063091 0.000000 0.000000 0.000000 
103.133000 -149.039000 1147.678960 -0.176659 -0.528534 -0.183647 -0.206500 -0.027798 -0.020896 -0.205716 0.010939 -0.012817 -0.206221 -0.014614 -0.004076 0.204344 -1.183529 -0.552569 0.000000 0.000000 0.000000 0.271765 -0.431238 0.419158 0.202468 -0.419069 0.328126 0.389320 -1.523203 0.733053 0.000000 0.000000 0.000000 -0.650503 -1.620809 -0.185230 -0.445672 -1.581279 0.098434 -0.611325 -2.399716 -0.544492 0.000000 0.000000 0.000000 0.061643 0.291849 0.077761 -0.005061 2.295962 -0.048390 0.062000 -0.088300 0.019266 0.000000 0.000000 0.000000 -0.002194 0.968260 0.095302 -0.004023 0.855289 -0.100901 -0.026518 0.443874 -0.069347 0.000000 0.000000 0.000000 
103.150000 -149.233000 1147.662960 -0.147342 -0.509344 -0.188615 -0.193194 -0.006265 0.008727 -0.192745 0.005900 -0.019074 -0.193034 -0.007357 0.001662 0.197173 -1.135309 -0.533585 0.000000 0.000000 0.000000 0.272372 -0.410970 0.454235 0.204378 -0.398886 0.412813 0.366832 -1.412344 0.716613 0.000000 0.000000 0.000000 -0.628646 -1.536606 -0.192206 -0.449991 -1.501940 -0.009626 -0.614493 -2.296771 -0.686206 0.000000 0.000000 0.000000 0.055757 0.281429 0.087791 -0.011088 2.288747 -0.037519 0.058316 -0.112581 0.015246 0.000000 0.000000 0.000000 -0.011752 0.947753 0.116549 -0.012319 0.848314 -0.108000 -0.034477 0.450356 -0.074010 0.000000 0.000000 0.000000 
103.162000 -149.418000 1147.630980 -0.124387 -0.492658 -0.189178 -0.175672 0.008547 0.033101 -0.175430 0.002429 -0.022928 -0.175575 -0.002556 0.006693 0.189295 -1.068707 -0.512625 0.000000 0.000000 0.000000 0.272964 -0.389015 0.493545 0.201499 -0.376153 0.512711 0.318497 -1.225780 0.623330 0.000000 0.000000 0.000000 -0.609433 -1.442410 -0.200322 -0.442937 -1.410229 -0.131855 -0.594000 -2.109760 -0.795782 0.000000 0.000000 0.000000 0.052412 0.275967 0.093340 -0.014265 2.275878 -0.029118 0.056901 -0.137216 0.012210 0.000000 0.000000 0.000000 -0.020055 0.931196 0.131937 -0.019689 0.841630 -0.113801 -0.041852 0.449467 -0.077452 0.000000 0.000000 0.000000 
103.141000 -149.610000 1147.600950 -0.102365 -0.479400 -0.187591 -0.157844 0.022486 0.053459 -0.157816 -0.000219 -0.024377 -0.157832 0.001911 0.009474 0.181217 -1.003177 -0.491073 0.000000 0.000000 0.000000 0.273058 -0.363046 0.533859 0.195478 -0.348986 0.600013 0.266091 -1.029743 0.515023 0.000000 0.000000 0.000000 -0.588757 -1.338645 -0.214563 -0.427408 -1.307748 -0.248597 -0.559291 -1.889384 -0.865604 0.000000 0.000000 0.000000 0.048118 0.265335 0.098288 -0.018981 2.275661 -0.022518 0.054094 -0.159375 0.008790 0.000000 0.000000 0.000000 -0.027917 0.904131 0.145769 -0.024799 0.860850 -0.121077 -0.048837 0.440433 -0.079669 0.000000 0.000000 0.000000 
103.077000 -149.819000 1147.571040 -0.080666 -0.468508 -0.185353 -0.140432 0.035822 0.071963 -0.140601 -0.002233 -0.025994 -0.140504 0.006163 0.012133 0.173235 -0.942253 -0.469733 0.000000 0.000000 0.000000 0.274830 -0.331677 0.572900 0.186550 -0.315655 0.671146 0.213185 -0.835420 0.401513 0.000000 0.000000 0.000000 -0.565123 -1.224579 -0.238183 -0.402982 -1.193932 -0.356226 -0.510314 -1.641075 -0.888948 0.000000 0.000000 0.000000 0.041922 0.243192 0.106075 -0.026541 2.296322 -0.019096 0.048700 -0.178025 0.004549 0.000000 0.000000 0.000000 -0.034661 0.857203 0.159357 -0.025764 0.920460 -0.129279 -0.054207 0.423392 -0.080086 0.000000 0.000000 0.000000 
102.980000 -150.037000 1147.542970 -0.060078 -0.461202 -0.181098 -0.123219 0.048626 0.085688 -0.123612 -0.003403 -0.024158 -0.123423 0.009601 0.011708 0.164419 -0.881409 -0.446090 0.000000 0.000000 0.000000 0.278498 -0.296233 0.613848 0.174372 -0.277389 0.729508 0.156122 -0.631385 0.272717 0.000000 0.000000 0.000000 -0.538765 -1.100551 -0.268481 -0.369797 -1.069075 -0.456298 -0.447245 -1.360121 -0.872347 0.000000 0.000000 0.000000 0.035012 0.215902 0.113751 -0.035385 2.329976 -0.017905 0.042129 -0.194479 -0.000007 0.000000 0.000000 0.000000 -0.041055 0.800040 0.171517 -0.024578 1.005975 -0.138595 -0.059260 0.398020 -0.079288 0.000000 0.000000 0.000000 
